# xmcd CD database file
#
# Track frame offsets:
#	150
#	12539
#	24008
#	35826
#	52973
#	67319
#	80188
#	92542
#	108149
#	122446
#	137482
#	152030
#	164962
#	176633
#	192658
#
# Disc length: 2741 seconds
#
# Revision: 0
# Processed by: cddbd v1.5.1PL2 Copyright (c) Steve Scherf et al.
# Submitted via: CDex 1.60beta1-cs1
#
DISCID=ce0ab30f
DTITLE=Nenen and sulivan - Zé durim
DYEAR=2006
DGENRE=Country
TTITLE0=bandido e bonito
TTITLE1=a volta do seresteiro
TTITLE2=pacu assado
TTITLE3=quem éperfídia' quem eu quero não me quer
TTITLE4=águia de aço
TTITLE5=seu adeus doeu de mais
TTITLE6=amor da minha vida
TTITLE7=coração de vitela
TTITLE8=dama de aluguél
TTITLE9=dona felicidade
TTITLE10=eu tenho medo em te perder
TTITLE11=mala amarela
TTITLE12=orgulhosa
TTITLE13=quanto custa seu amor
TTITLE14=Zé durim
EXTD=YEAR: 2006
EXTT0=
EXTT1=
EXTT2=
EXTT3=
EXTT4=
EXTT5=
EXTT6=
EXTT7=
EXTT8=
EXTT9=
EXTT10=
EXTT11=
EXTT12=
EXTT13=
EXTT14=
PLAYORDER=
